PathFileType	4	(X/Y/Z)	C:\Users\WrightLab\Desktop\Jo\P5V111.trc
DataRate	CameraRate	NumFrames	NumMarkers	Units	OrigDataRate	OrigDataStartFrame	OrigNumFrames
100.00	100.00	      76	19	mm	100.00	1	      1166
Frame#	Time	Headset_Front			Headset_Back			Headset_Left			Headset_Right			Left_Shoulder			Right_Shoulder			Sternum			C7			Left Elbow			Right Elbow			Left Wrist			Right Wrist			Left ASIS			Right ASIS			S2			Left Knee			Right Knee			Left Ankle			Right Ankle			
		X1	Y1	Z1	X2	Y2	Z2	X3	Y3	Z3	X4	Y4	Z4	X5	Y5	Z5	X6	Y6	Z6	X7	Y7	Z7	X8	Y8	Z8	X9	Y9	Z9	X10	Y10	Z10	X11	Y11	Z11	X12	Y12	Z12	X13	Y13	Z13	X14	Y14	Z14	X15	Y15	Z15	X16	Y16	Z16	X17	Y17	Z17	X18	Y18	Z18	X19	Y19	Z19	

1	0.000																																																	-233.98410	562.18018	1853.87830							
2	0.010																																																	-233.74898	559.58337	1854.41455							
3	0.020																																																	-233.12766	557.06927	1854.95142							
4	0.030																																																	-232.89026	555.63684	1852.20117							
5	0.040																																		-151.92502	1191.81409	1625.38623													-232.43648	554.51227	1849.69263							
6	0.050																																		-151.59811	1192.56567	1618.72119													-232.53334	552.47021	1849.04236							
7	0.060																																		-152.29092	1192.19409	1612.54297													-232.39513	552.25189	1848.75476							
8	0.070																																		-152.91342	1191.00049	1606.40417													-232.23260	551.77332	1845.30786							
9	0.080																																		-155.13737	1189.03430	1599.92700													-232.11877	552.38153	1842.77441							
10	0.090																																		-154.16409	1188.87964	1594.86462													-232.00424	553.34204	1839.49536							
11	0.100																																		-155.22807	1187.52637	1587.30237													-232.10104	552.06323	1837.68103							
12	0.110																																		-154.76140	1188.79077	1582.32068													-232.17006	553.13013	1833.67163							
13	0.120																																		-155.78275	1187.15063	1575.93652													-232.46338	551.95721	1831.86353							
14	0.130																																		-156.10046	1186.17090	1569.83643													-232.34999	550.55127	1829.44043							
15	0.140																																		-156.44762	1184.72375	1563.46777													-232.28384	550.34424	1826.31873							
16	0.150																																		-155.59193	1185.71936	1557.89880													-232.59875	549.20276	1824.67566							
17	0.160																																		-157.41522	1184.38257	1550.17957													-232.32916	548.64221	1821.25684							
18	0.170																																		-159.54927	1183.27014	1543.88306													-232.16185	547.93481	1818.92114							
19	0.180																																		-159.42612	1182.86609	1539.47083													-231.85603	547.04956	1815.36243							
20	0.190																																		-160.52451	1182.15710	1533.05261													-232.59843	545.72882	1813.22473							
21	0.200																																		-161.27155	1181.72339	1527.60657													-232.85204	544.93121	1811.31421							
22	0.210																																		-162.01001	1181.10693	1522.72034													-234.20840	543.96063	1807.32166							
23	0.220																																		-162.99188	1181.74829	1515.66956				-250.80592	992.05261	1766.61890							-235.49632	544.34778	1804.06116							
24	0.230																																		-164.64464	1180.64026	1510.41089				-256.67645	991.33270	1768.93079							-237.30988	543.41541	1802.25732							
25	0.240																																		-167.11456	1179.27148	1505.47070				-258.46570	990.45374	1766.34985							-238.77713	542.39539	1799.15503							
26	0.250																																		-167.04697	1178.82471	1499.64636				-260.73337	990.14197	1762.39941							-240.57487	542.91815	1796.31250							
27	0.260																																		-169.45732	1178.50574	1495.36475				-262.79581	990.25739	1759.19592							-241.97255	541.87421	1795.86609							
28	0.270																																		-165.25151	1180.29065	1490.10339				-264.74527	988.93842	1759.08191							-243.29927	541.79163	1790.36731							
29	0.280																																		-167.33864	1179.66846	1486.06396				-266.89981	989.43866	1754.06384							-243.99377	540.85205	1790.94458							
30	0.290																																		-168.70868	1180.44080	1480.37000				-269.19202	989.32574	1752.65222							-244.66615	540.48755	1787.13123							
31	0.300																																		-171.83658	1180.20789	1475.91040				-271.75336	988.41162	1751.28711							-245.26685	540.03192	1785.86414							
32	0.310																																		-170.64577	1181.21851	1471.79358				-274.21088	988.01959	1748.50867							-245.90587	539.54083	1784.97144							
33	0.320																																		-172.49608	1181.96069	1467.99243				-276.70850	988.30457	1747.25171							-245.80223	538.93677	1784.76697							
34	0.330																																		-169.02991	1183.84424	1462.49036				-278.77670	988.73242	1742.85974							-245.70753	538.84430	1778.66162							
35	0.340																																		-169.94078	1184.58142	1458.35962				-281.69037	988.90289	1741.69861							-245.47050	538.42816	1778.05591							
36	0.350																																		-172.01151	1184.51855	1454.34790				-283.89011	988.88251	1736.76953							-245.46547	538.36694	1777.43530							
37	0.360																																		-172.52779	1185.23315	1450.98694				-286.39285	988.69098	1734.29175							-244.97473	538.59277	1775.31592							
38	0.370																																		-174.67050	1186.32141	1447.83105				-288.93158	989.56451	1731.77051							-244.58107	538.51898	1771.30359							
39	0.380																																		-176.38374	1187.41614	1443.64697				-291.57300	988.78345	1728.07007							-244.30467	538.29297	1770.61267							
40	0.390																																		-175.13622	1188.99536	1440.82910				-294.34949	989.81586	1726.10657							-244.36079	538.18024	1769.18286							
41	0.400																																		-178.33257	1189.46692	1437.47681				-296.86472	990.40997	1722.70825							-244.19032	539.39545	1764.79749							
42	0.410																																		-180.81042	1190.19373	1433.85278				-299.60965	989.98535	1720.66394							-244.07814	539.26215	1761.70911							
43	0.420																																		-181.13820	1191.55115	1430.27295				-302.64999	989.45795	1719.27039							-244.15961	538.29987	1760.77991							
44	0.430																																		-183.45238	1193.03674	1426.19666				-304.60593	989.00677	1718.70166							-244.46062	538.83624	1757.59277							
45	0.440																																		-183.85892	1194.39319	1422.27429				-307.16446	989.26801	1714.81824							-244.53075	538.43610	1754.38904							
46	0.450																																		-184.56299	1195.66248	1418.83435				-309.42224	989.22168	1712.03601							-244.77023	537.67230	1751.04773							
47	0.460																																		-186.38937	1196.92639	1415.03589				-312.12204	989.60315	1708.30237							-244.95821	538.27222	1746.84106							
48	0.470																												-97.18430	1267.26733	1634.57129				-187.83057	1198.79382	1411.97156				-314.59692	988.70770	1707.14001							-245.90872	537.88037	1744.93701							
49	0.480																												-98.81805	1267.93738	1631.38672				-189.48868	1200.25598	1408.04700				-316.50931	987.89905	1705.62866							-246.96632	537.70313	1740.38904							
50	0.490																												-101.77454	1268.77405	1625.78564				-191.49387	1200.64807	1403.52686				-319.09683	987.32507	1703.27039							-247.54454	536.48993	1738.74951							
51	0.500																												-104.00016	1269.09949	1622.81250				-192.90807	1202.70605	1400.15527				-321.08887	987.05676	1698.65015							-249.00768	535.76837	1735.38147							
52	0.510																												-106.85320	1269.80090	1620.10242				-193.83235	1203.53723	1396.56335				-323.43558	986.87915	1696.44226							-250.42813	536.47461	1730.81702							
53	0.520																												-109.06171	1270.25916	1617.15332				-196.91920	1205.61279	1392.69067				-325.68619	986.10797	1694.66418							-251.54918	536.66522	1727.67273							
54	0.530																												-111.34890	1271.17639	1613.95068				-196.52849	1206.80481	1389.78723				-328.49136	985.36218	1691.15894							-253.12050	535.56354	1723.59375							
55	0.540																												-113.84262	1271.01819	1610.95398				-199.57272	1208.26929	1386.31897				-331.00815	985.07831	1690.90796							-254.91170	535.90125	1721.58643							
56	0.550																												-115.77383	1271.45471	1608.87500				-201.46030	1209.47058	1382.81555				-334.25516	983.54724	1688.29041							-256.33673	535.16498	1717.80884							
57	0.560																												-118.57700	1272.14063	1606.00562				-202.45277	1211.14282	1379.91638				-337.15262	983.28638	1687.73511							-258.19632	535.27582	1715.19922							
58	0.570																												-121.21014	1272.57312	1602.56396				-205.19400	1211.57495	1375.79114				-340.40942	982.48474	1685.74951							-259.98819	534.64264	1711.94446							
59	0.580																												-124.32780	1273.02954	1599.94141				-206.74036	1212.86133	1372.26563				-342.97916	983.13739	1681.91602							-261.52313	534.29437	1709.69397							
60	0.590																												-127.62254	1273.34033	1596.24438				-208.55167	1213.99194	1369.25037				-346.55875	982.41187	1679.83240							-262.73141	533.76587	1707.06775							
61	0.600																												-130.86993	1273.76526	1593.56091				-210.39656	1215.38892	1365.70911				-350.11429	981.41321	1677.35999							-264.25531	532.98773	1704.71155							
62	0.610																												-134.15845	1273.98755	1590.66052				-212.84622	1216.55835	1362.53015				-353.73672	980.37823	1676.44336							-265.50275	533.65094	1702.04858							
63	0.620																												-137.31284	1274.56372	1588.97668				-214.13521	1217.51038	1359.15796				-356.86676	979.52783	1674.27173							-267.34143	533.44501	1699.31836							
64	0.630																												-141.05760	1275.26025	1585.61548				-216.42181	1218.63550	1355.58337				-360.90366	978.71063	1672.87512							-268.77600	532.74982	1696.88782							
65	0.640																												-144.41444	1275.15771	1583.44409				-218.08667	1219.34607	1352.00769				-364.93668	979.52325	1667.67798							-270.40784	531.07416	1697.71619							
66	0.650																												-147.92328	1275.83240	1581.20935				-218.87193	1220.80273	1349.39978				-369.01605	978.28485	1667.45264							-273.70367	529.93738	1693.92590							
67	0.660																												-150.72040	1276.78308	1579.81458				-220.91049	1222.35608	1345.21497				-373.11169	977.63031	1664.69324							-274.83911	530.79742	1692.54761							
68	0.670																												-154.83893	1276.94763	1577.06775				-223.32101	1222.54407	1341.38794				-377.63840	977.02429	1661.68262							-277.42245	531.26062	1689.20728							
69	0.680																												-158.83672	1277.43481	1574.17212				-224.40416	1223.78064	1338.22449				-382.20557	976.93640	1660.69800							-280.51437	530.83392	1688.50952							
70	0.690																												-161.88023	1278.43945	1571.39856				-225.36111	1225.10803	1334.78394				-386.27194	976.12103	1657.77405							-284.11923	530.31512	1686.33679							
71	0.700																												-165.58243	1278.54456	1569.10205				-226.50879	1226.43579	1331.61536				-391.06668	975.62061	1655.36267							-288.08585	529.96240	1685.90222							
72	0.710																												-169.94731	1278.44043	1566.24097				-227.41898	1228.55615	1328.62170				-396.18863	974.52893	1652.83716							-292.37503	529.21649	1684.56921							
73	0.720																												-173.93488	1279.15625	1563.52368				-228.03917	1230.09167	1325.09460				-401.24881	973.22632	1649.75452							-297.12936	528.66229	1682.91626							
74	0.730																												-177.36630	1279.27881	1561.88538				-228.03137	1231.09082	1322.18372				-406.34320	972.71387	1647.66541							-301.73804	527.56384	1682.44873							
75	0.740																												-181.08670	1280.79907	1559.55884				-229.21794	1232.71985	1318.49939				-411.48080	972.03809	1646.02991							-306.47650	525.31598	1679.83264							
76	0.750																												-185.50630	1281.12012	1557.34338				-229.20381	1234.24060	1315.85022				-417.08237	970.84106	1643.20984							-311.45602	524.39124	1678.23499							
